<?xml version="1.0" encoding="UTF-8" standalone="no"?>
<svg
   xmlns:dc="http://purl.org/dc/elements/1.1/"
   xmlns:cc="http://creativecommons.org/ns#"
   xmlns:rdf="http://www.w3.org/1999/02/22-rdf-syntax-ns#"
   xmlns:svg="http://www.w3.org/2000/svg"
   xmlns="http://www.w3.org/2000/svg"
   xmlns:sodipodi="http://sodipodi.sourceforge.net/DTD/sodipodi-0.dtd"
   xmlns:inkscape="http://www.inkscape.org/namespaces/inkscape"
   width="210mm"
   height="297mm"
   viewBox="0 0 210 297"
   version="1.1"
   id="svg8"
   inkscape:version="1.0.2-2 (e86c870879, 2021-01-15)"
   sodipodi:docname="Eicon.svg"
   inkscape:export-filename="C:\Users\knigh\Documents\GitHub\EconSimV2\Assets\Icons\Eicon.png"
   inkscape:export-xdpi="175.4377"
   inkscape:export-ydpi="175.4377">
  <title
     id="title913">EconsimIcon</title>
  <defs
     id="defs2" />
  <sodipodi:namedview
     id="base"
     pagecolor="#ffffff"
     bordercolor="#666666"
     borderopacity="1.0"
     inkscape:pageopacity="0.0"
     inkscape:pageshadow="2"
     inkscape:zoom="1"
     inkscape:cx="333.21429"
     inkscape:cy="400"
     inkscape:document-units="mm"
     inkscape:current-layer="layer1"
     inkscape:document-rotation="0"
     showgrid="false"
     inkscape:window-width="1920"
     inkscape:window-height="1017"
     inkscape:window-x="-8"
     inkscape:window-y="-8"
     inkscape:window-maximized="1" />
  <metadata
     id="metadata5">
    <rdf:RDF>
      <cc:Work
         rdf:about="">
        <dc:format>image/svg+xml</dc:format>
        <dc:type
           rdf:resource="http://purl.org/dc/dcmitype/StillImage" />
        <dc:title>EconsimIcon</dc:title>
      </cc:Work>
    </rdf:RDF>
  </metadata>
  <g
     inkscape:label="Layer 1"
     inkscape:groupmode="layer"
     id="layer1">
    <path
       id="rect857"
       style="stroke:none;stroke-width:0.185699"
       d="m 26.722916,26.458333 v 99.999997 h 8.27608 v -2.5 h 33.725843 v -5.5 H 34.998996 V 79.625 H 68.724839 V 74.124996 H 34.998996 v -38.83333 h 33.725843 v -5.5 H 34.998996 v -3.333333 z m 82.188994,14.833333 a 11.407931,27.833333 0 0 0 -11.408021,27.833333 11.407931,27.833333 0 0 0 0.643794,9.215493 5.2425178,17.166665 0 0 1 3.266577,11.76172 11.407931,27.833333 0 0 0 7.49765,6.856118 11.407931,27.833333 0 0 0 7.49756,-6.855792 5.2425178,17.166665 0 0 1 3.26685,-11.762046 11.407931,27.833333 0 0 0 0.64347,-9.215493 11.407931,27.833333 0 0 0 -11.40788,-27.833333 z m 10.76441,37.048826 a 11.407931,27.833333 0 0 1 -3.26685,11.762046 5.2425178,17.166665 0 0 0 -0.17148,4.355791 5.2425178,17.166665 0 0 0 5.24246,17.166671 5.2425178,17.166665 0 0 0 5.24247,-17.166671 5.2425178,17.166665 0 0 0 -5.24247,-17.166662 5.2425178,17.166665 0 0 0 -1.80413,1.048825 z m -18.26206,11.76172 a 11.407931,27.833333 0 0 1 -3.266577,-11.76172 5.2425178,17.166665 0 0 0 -1.80441,-1.048825 5.2425178,17.166665 0 0 0 -5.242451,17.166662 5.2425178,17.166665 0 0 0 5.242451,17.166671 5.2425178,17.166665 0 0 0 5.242487,-17.166671 5.2425178,17.166665 0 0 0 -0.1715,-4.356117 z M 108.91191,46.125 a 4.0619139,6.1666663 0 0 1 4.06184,6.166666 4.0619139,6.1666663 0 0 1 -4.06184,6.166667 4.0619139,6.1666663 0 0 1 -4.06197,-6.166667 4.0619139,6.1666663 0 0 1 4.06197,-6.166666 z m 1.20919,2.499999 a 0.77781313,0.9999999 0 0 0 -0.77716,1 0.77781313,0.9999999 0 0 0 0.7779,1 0.77781313,0.9999999 0 0 0 0.77777,-1 0.77781313,0.9999999 0 0 0 -0.77777,-1 0.77781313,0.9999999 0 0 0 -6.5e-4,0 z"
       inkscape:export-xdpi="260.14001"
       inkscape:export-ydpi="260.14001" />
  </g>
</svg>
